<?xml version="1.0" encoding="utf-8"?>
<!-- Generator: Adobe Illustrator 22.1.0, SVG Export Plug-In . SVG Version: 6.00 Build 0)  -->
<svg version="1.1" id="Academy" xmlns="http://www.w3.org/2000/svg" xmlns:xlink="http://www.w3.org/1999/xlink" x="0px" y="0px"
	 viewBox="0 0 992.9 287.3" style="enable-background:new 0 0 992.9 287.3;" xml:space="preserve">
<style type="text/css">
	.st0{fill:#047364;}
</style>
<g>
	<path class="st0" d="M98.5,44.4L59.4,160.7h0.1h54.8l3.7,11l-62.3,0l-17.1,51h11.8l13.3-39.7h58.2l13.3,39.7H147L98.7,78.8
		l5.7-16.9l54,160.8h11.8L110.2,44.4H98.5z M110.6,149.3H75l17.8-53L110.6,149.3z"/>
	<polygon class="st0" points="350.5,44.4 338.7,44.4 297.3,167.9 273.6,97.3 261.8,97.3 291.4,185.4 285.7,202.3 250.5,97.3 
		236.8,97.3 213.1,167.9 171.6,44.4 159.9,44.4 207.2,185.4 201.5,202.3 148.5,44.4 136.8,44.4 196.6,222.8 196.6,222.8 
		196.6,222.8 206.4,222.8 243.6,112 249.3,128.8 217.8,222.8 229.5,222.8 255.2,146.4 280.8,222.8 290.6,222.8 290.6,222.8 
		290.6,222.8 	"/>
	<polygon class="st0" points="361.8,44.4 302,222.8 313.7,222.8 373.6,44.4 	"/>
	<polygon class="st0" points="384.9,44.4 325.1,222.8 336.8,222.8 396.7,44.4 	"/>
</g>
<g>
	<path class="st0" d="M944.2,121.4l-14.4,47.7l-15.2-47.7h-14.4l22,66.2c-0.9,5.6-4.9,9.6-9.8,9.6c-5.9,0-7.6-2.5-9.4-4.3l-6.7,10.2
		c0.6,0.7,5.7,7.8,16.8,7.8c15.1,0,20.3-12.1,25-26.6l20.5-62.8H944.2z"/>
	<g>
		<path class="st0" d="M492.5,96.4h-13.9l-33.6,92.3h13.7l8.7-24.1h36l8.7,24.1h14L492.5,96.4z M485.4,115.5l13.2,36l-26.4,0
			L485.4,115.5z"/>
		<path class="st0" d="M560.4,119.8c-19.8,0-32,13.6-32,35.6c0,21.9,11.8,35,31.5,35c20.3,0,26.1-15.2,27-16.9l-11.8-6
			c0,0-3.7,9-14.3,9c-11.4,0-17.9-7.8-17.9-21.4c0-13.6,6.4-21.2,17.9-21.2c11.7,0,14.5,8.9,15.9,11.4l11.3-7.6
			C586,134,580.5,119.8,560.4,119.8z"/>
		<path class="st0" d="M648.4,170.2v-25.7c0-16-8.7-24.8-24.4-24.8c-20.7,0-26.1,15.7-27.5,18.6l11.7,5.5c1.5-2.9,4.1-10,15-10
			c6.9,0,11.4,2.9,11.4,7.5c0,2.9-5.4,4-11.7,5.1c-11.7,2.2-27.6,5.2-27.6,22.8c0,10.5,6.9,21.2,22.4,21.2c7.7,0,14.2-2.6,19.4-7.7
			c3,7.7,12.3,7.8,12.3,7.8l7.3-11.4C655.4,178.7,648.4,178.4,648.4,170.2z M626.9,158.3c3.5-0.7,5.3-1.1,6.4-1.4
			c0.8-0.2,1.1-0.3,1.4-0.3c0,0,0,0.1,0,0.1v9.7c0,4.8-7.7,10-14.8,10c-6.4,0-10.2-3.3-10.2-8.9
			C609.6,162.6,615.2,160.6,626.9,158.3z"/>
		<path class="st0" d="M706.6,96.4v30.3c-5-4.5-11.2-7-17.9-7c-17.6,0-29.9,14.5-29.9,35.3c0,19.9,13,35.4,29.5,35.4
			c6.5,0,13-2.8,18.3-7.7v6h13.8V96.4H706.6z M706.6,151.9v6.1c-0.1,11.4-6.7,18.8-16.6,18.8c-10,0-16.8-8.8-16.8-21.9
			c0-12.6,6.8-21.4,16.6-21.4C697.9,133.4,706.6,138.2,706.6,151.9z"/>
		<path class="st0" d="M763.3,119.7c-19.2,0-32.2,14.1-32.2,35.1c0,21.3,13.3,35.6,33.2,35.6c16.4,0,25.6-9.9,26.4-11.3l-8.2-10
			c0,0-7.8,7.4-17.7,7.4c-10.4,0-18-6.5-18.8-16.2h45.3c0.4-1,0.9-6.3,0.9-8.8C792.1,132.5,780.5,119.7,763.3,119.7z M762.7,133.8
			c8.9,0,14.5,5.1,14.7,13.2l-31,0C746.9,141.4,752.8,133.8,762.7,133.8z"/>
		<path class="st0" d="M870,119.7c-8.9,0-16.1,4.9-19.5,9.8c-4-6.2-10.8-9.8-18.5-9.8c-6.9,0-13.2,2.7-16.9,7.3l-1.2-5.6h-12.3v67.3
			h13.8v-39.9c0-10.2,3.9-14.9,12.4-14.9c8.7,0,12.7,4.7,12.7,14.7v40.2h13.8v-39.9c0-9.2,4.9-14.9,12.7-14.9
			c8.7,0,12.6,4.5,12.6,14.7v40.2h13.8v-41.4C893.5,129.8,884.9,119.7,870,119.7z"/>
	</g>
</g>
</svg>
